<mxfile host="app.diagrams.net" modified="2024-01-30T06:20:29.875Z" agent="Mozilla/5.0 (X11; Linux x86_64) AppleWebKit/537.36 (KHTML, like Gecko) Chrome/116.0.5845.1017 YaBrowser/23.9.1.1017 (corp) Yowser/2.5 Safari/537.36" version="23.0.2" etag="S3NLl6qZObaiMzcN61Hn" type="github">
  <diagram name="Страница — 1" id="vZWF8dGIkmZ7j_GKSHD5">
    <mxGraphModel>
      <root>
        <mxCell id="0" />
        <mxCell id="1" parent="0" />
      </root>
    </mxGraphModel>
  </diagram>
</mxfile>
